<svg width="160" height="39" viewBox="0 0 160 39" fill="none" xmlns="http://www.w3.org/2000/svg">
<g clip-path="url(#clip0_1_6)">
<path d="M37.2993 24.2982H41.0003L39.1728 19.8525L37.2993 24.2982ZM32.0259 28.8107L39.2126 14.1702H39.4248L46.4525 28.8107H42.9338L42.0416 26.7451H36.3243L35.4123 28.8107H32.0259ZM48.4816 28.8107V14.6113H51.8443V25.7624H57.3367V28.8107H48.4816ZM64.3174 24.2982H68.0183L66.1909 19.8525L64.3174 24.2982ZM59.044 28.8107L66.2307 14.1702H66.443L73.4706 28.8107H69.9519L69.0597 26.7451H63.3424L62.4304 28.8107H59.044ZM74.3455 28.8107L77.2709 14.1502H77.5128L82.8292 23.3955L87.8435 14.1502H88.0955L91.0404 28.8107H87.8435L86.6494 22.3259L82.869 29.3322H82.6432L78.5842 22.2292L77.347 28.8107H74.3455ZM97.882 17.2185H97.4241V21.0091H98.0346C98.8836 21.0091 99.5302 20.8455 99.9779 20.5144C100.426 20.1833 100.648 19.7089 100.648 19.0905C100.648 18.4419 100.429 17.9706 99.988 17.6698C99.5467 17.3689 98.8439 17.2185 97.882 17.2185ZM94.0614 28.8107V14.6113H97.6862C98.8008 14.6113 99.6862 14.6914 100.339 14.8555C100.993 15.0191 101.573 15.2932 102.081 15.6775C102.604 16.0619 103.012 16.5434 103.301 17.1217C103.59 17.7 103.732 18.3116 103.732 18.9567C103.732 20.3941 103.225 21.5303 102.21 22.3728C101.199 23.2153 99.8219 23.6363 98.0841 23.6363C97.9053 23.6363 97.7691 23.6363 97.6765 23.6329C97.5869 23.6295 97.5006 23.6231 97.4241 23.6163V28.8107H94.0614ZM106.833 28.8107V14.6113H110.196V28.8107H106.833ZM118.271 17.1985H117.717V21.1293H118.427C119.276 21.1293 119.922 20.9554 120.37 20.6111C120.818 20.2671 121.04 19.769 121.04 19.1238C121.04 18.4454 120.825 17.9574 120.39 17.6531C119.956 17.3489 119.249 17.1985 118.271 17.1985ZM114.454 28.8107V14.6113H118.075C119.236 14.6113 120.135 14.6884 120.775 14.8419C121.415 14.9957 121.978 15.2497 122.473 15.6107C122.997 15.9886 123.405 16.4565 123.693 17.0147C123.982 17.573 124.124 18.1612 124.124 18.7795C124.124 19.6753 123.899 20.4577 123.448 21.1293C122.997 21.8013 122.347 22.326 121.498 22.7069L125.796 28.8107H121.955L118.195 23.2353H117.717V28.8107H114.454Z" fill="#2B2A29"/>
<path d="M128.25 27.3881C128.25 26.9232 128.409 26.532 128.728 26.2074C129.043 25.8831 129.428 25.7224 129.883 25.7224C130.351 25.7224 130.746 25.8831 131.071 26.204C131.393 26.5218 131.555 26.9164 131.555 27.3881C131.555 27.8462 131.393 28.2378 131.064 28.5655C130.736 28.8898 130.344 29.0538 129.883 29.0538C129.441 29.0538 129.06 28.8863 128.735 28.5552C128.413 28.2207 128.25 27.833 128.25 27.3881ZM137.568 14.6053V22.4115C137.568 23.6656 137.797 24.6055 138.255 25.2277C138.71 25.8532 139.403 26.1639 140.332 26.1639C141.225 26.1639 141.909 25.8729 142.377 25.2912C142.848 24.7125 143.083 23.8666 143.083 22.7561V14.6053H146.09V22.7561C146.09 24.8062 145.569 26.4081 144.523 27.5552C143.481 28.7023 142.031 29.2746 140.176 29.2746C138.301 29.2746 136.845 28.7057 135.803 27.5688C134.764 26.4315 134.243 24.833 134.243 22.7758V14.6053H137.568ZM147.556 28.813L154.565 17.5754H148.273L148.807 14.6053H160L153.008 25.803H160L159.466 28.813H147.556Z" fill="#2B2A29"/>
<path fill-rule="evenodd" clip-rule="evenodd" d="M25.3388 27.7459C26.1409 27.4908 26.4226 30.3293 28.1784 30.4805C31.8069 30.7927 34.5733 33.2234 35.8277 36.7177C36.0745 37.4056 35.605 37.6418 34.8467 37.9286C34.0686 38.2231 33.0553 38.4147 32.9556 37.7676C32.5629 34.9386 30.8874 32.0475 27.9777 31.6409C26.3494 31.4141 25.8113 34.1388 25.0587 33.7854C24.7137 33.6233 25.4056 32.681 25.5282 30.9753C25.6437 29.361 25.0459 27.8389 25.3388 27.7459Z" fill="#00582E"/>
<path fill-rule="evenodd" clip-rule="evenodd" d="M20.5587 1.24955C32.6335 4.09373 34.5288 15.5865 31.5554 22.3112C31.4804 22.5546 31.2648 22.6318 31.1001 22.5879C30.9539 22.549 30.796 22.3763 30.8432 22.1019C31.8033 16.1149 29.806 9.91662 23.885 7.60045C18.6649 5.55831 11.6354 7.70819 10.1541 13.7416C8.71484 19.6001 12.7083 24.3186 18.4991 25.2439C20.7226 25.5988 22.4859 25.6434 23.7673 27.385C25.2204 29.3603 25.2271 32.3583 23.4886 34.3169C21.8337 36.1825 19.4757 36.2453 17.1679 36.1342C6.33055 35.6114 -1.5457 26.3782 0.257706 15.2138C1.75886 5.92046 10.6713 -1.07947 20.5587 1.24955Z" fill="#E31E24"/>
</g>
<defs>
<clipPath id="clip0_1_6">
<rect width="160" height="38" fill="white" transform="translate(0 0.5)"/>
</clipPath>
</defs>
</svg>
