<svg width="25" height="25" viewBox="0 0 25 25" fill="none" xmlns="http://www.w3.org/2000/svg">
<g clip-path="url(#clip0_1_27)">
<path fill-rule="evenodd" clip-rule="evenodd" d="M15.5937 14.5H14.8037L14.5237 14.23C15.7237 12.83 16.3437 10.92 16.0037 8.89002C15.5337 6.11002 13.2137 3.89002 10.4137 3.55002C6.18364 3.03002 2.62364 6.59002 3.14364 10.82C3.48364 13.62 5.70364 15.94 8.48364 16.41C10.5137 16.75 12.4237 16.13 13.8237 14.93L14.0937 15.21V16L18.3437 20.25C18.7537 20.66 19.4237 20.66 19.8337 20.25C20.2437 19.84 20.2437 19.17 19.8337 18.76L15.5937 14.5ZM9.59364 14.5C7.10364 14.5 5.09364 12.49 5.09364 10C5.09364 7.51002 7.10364 5.50002 9.59364 5.50002C12.0837 5.50002 14.0937 7.51002 14.0937 10C14.0937 12.49 12.0837 14.5 9.59364 14.5Z" fill="#969696"/>
</g>
<defs>
<clipPath id="clip0_1_27">
<rect width="24" height="24" fill="white" transform="translate(0.09375 0.5)"/>
</clipPath>
</defs>
</svg>
