<svg width="58" height="58" viewBox="0 0 58 58" fill="none" xmlns="http://www.w3.org/2000/svg">
<g id="User image">
<circle id="Ellipse 858" cx="29" cy="29" r="29" fill="white"/>
<g id="&#240;&#159;&#166;&#134; icon &#34;user&#34;">
<path id="Vector" d="M34.0329 30.5901C35.4505 29.4748 36.4853 27.9453 36.9931 26.2145C37.501 24.4837 37.4568 22.6377 36.8667 20.9332C36.2766 19.2287 35.1698 17.7505 33.7004 16.7043C32.2311 15.6581 30.4722 15.0959 28.6684 15.0959C26.8646 15.0959 25.1057 15.6581 23.6363 16.7043C22.167 17.7505 21.0602 19.2287 20.4701 20.9332C19.88 22.6377 19.8358 24.4837 20.3436 26.2145C20.8515 27.9453 21.8863 29.4748 23.3039 30.5901C20.8748 31.5633 18.7553 33.1774 17.1714 35.2604C15.5875 37.3434 14.5986 39.8172 14.31 42.4181C14.2891 42.6079 14.3058 42.8001 14.3592 42.9835C14.4126 43.1669 14.5015 43.3381 14.621 43.4871C14.8624 43.7881 15.2134 43.9809 15.5969 44.0231C15.9804 44.0653 16.3649 43.9534 16.6659 43.712C16.9669 43.4707 17.1597 43.1197 17.2019 42.7362C17.5194 39.9096 18.8672 37.2991 20.9878 35.4034C23.1083 33.5077 25.853 32.4598 28.6973 32.4598C31.5417 32.4598 34.2863 33.5077 36.4069 35.4034C38.5274 37.2991 39.8752 39.9096 40.1927 42.7362C40.232 43.0915 40.4016 43.4196 40.6686 43.6573C40.9356 43.8949 41.2812 44.0252 41.6387 44.0231H41.7977C42.1768 43.9795 42.5232 43.7878 42.7616 43.4899C42.9999 43.1919 43.1108 42.8119 43.0702 42.4325C42.7803 39.8243 41.786 37.3442 40.1939 35.2579C38.6019 33.1717 36.4721 31.5581 34.0329 30.5901ZM28.6684 29.5635C27.5245 29.5635 26.4062 29.2242 25.4551 28.5887C24.5039 27.9532 23.7626 27.0499 23.3248 25.993C22.8871 24.9361 22.7725 23.7732 22.9957 22.6512C23.2189 21.5293 23.7697 20.4987 24.5786 19.6898C25.3875 18.8809 26.4181 18.3301 27.54 18.1069C28.662 17.8837 29.8249 17.9983 30.8818 18.436C31.9386 18.8738 32.842 19.6151 33.4775 20.5663C34.113 21.5174 34.4522 22.6357 34.4522 23.7796C34.4522 25.3136 33.8429 26.7847 32.7582 27.8694C31.6735 28.9541 30.2024 29.5635 28.6684 29.5635Z" fill="#757575"/>
</g>
</g>
</svg>
